<?xml version="1.0" standalone="no"?><!DOCTYPE svg PUBLIC "-//W3C//DTD SVG 1.1//EN" "http://www.w3.org/Graphics/SVG/1.1/DTD/svg11.dtd"><svg t="1547543886845" class="icon" style="" viewBox="0 0 1024 1024" version="1.1" xmlns="http://www.w3.org/2000/svg" p-id="16941" xmlns:xlink="http://www.w3.org/1999/xlink" width="400" height="400"><defs><style type="text/css"></style></defs><path d="M512 512m-512 0a512 512 0 1 0 1024 0 512 512 0 1 0-1024 0Z" fill="#18ACFC" p-id="16942"></path><path d="M500.113 228.39c118.396-1.518 178.924 61.004 201 156 3.497 15.048 0.15 34.807 0 50 27.142999999999997 5.682 33.087 60.106 10 75v1h1c8.26 14.329999999999998 19.04 28.125 26 44 7.332 16.723 9.305999999999997 35.16 14 55 4.024 17.01-2.287 51.505-10 57-0.7709999999999998 0.683-2.231 1.312-3 2-14.601-3.016-30.377-16.865-38-27-3.065-4.074-5.275-9.672-10-12-0.395 21.568-12.503 41.15-22 55-3.5139999999999993 5.123-14.073 13.216999999999999-14 18 3.690999999999999 2.836 8.305 2.955999999999999 13 5 10.513 4.577 25.449 13.168 32 22 2.333999999999999 3.146 5.548 7.554999999999999 7 11 16.193 38.414-36.527 48.314-63 54-27.185 5.839-77.818-10.224-92-19-8.749-5.414-16.863-18.573-29-19-3.666 2.3889999999999993-14.438 1.1319999999999997-20 1-16.829 32.804-101.913 47.867999999999995-148 31-14.061-5.146-43.398-17.695-38-40 4.437-18.327 19.947-29.224 35-37 5.759-2.975 18.915-4.419 22-10-13.141-8.988-24.521-28.659-31-44-3.412-8.077-4.193-25.775-9-32-7.789 12.245-32.097 36.91-52 33-3.071-4.553-7.213-9.097-9-15-4.792-15.835-1.81-40.379 2-54 8.117-29.02 16.965-50.62299999999998 32-72 4.672-6.643 11.425-12.135 16-19-8.945-9.733-6.951-37.535999999999994-1-49 4.002-7.709 9.701-7.413 10-20-1.9199999999999997-3.022-0.071-8.604-1-13-4.383-20.75 3.2729999999999997-47.552 9-63 19.8-53.420999999999985 53.712-90.466 105-112 11.986-5.033 25.833-7.783 39-11 5.322-1.3 11.969 0.518 16-2z" fill="#FFFFFF" p-id="16943"></path></svg>