<?xml version="1.0" standalone="no"?><!DOCTYPE svg PUBLIC "-//W3C//DTD SVG 1.1//EN" "http://www.w3.org/Graphics/SVG/1.1/DTD/svg11.dtd"><svg t="1547543880869" class="icon" style="" viewBox="0 0 1024 1024" version="1.1" xmlns="http://www.w3.org/2000/svg" p-id="16720" xmlns:xlink="http://www.w3.org/1999/xlink" width="400" height="400"><defs><style type="text/css"></style></defs><path d="M512 1024C229.228089 1024 0 794.771911 0 512S229.228089 0 512 0s512 229.228089 512 512-229.228089 512-512 512z m-87.813689-750.933333C314.1632 273.066667 221.866667 351.744 221.866667 444.7232c0 57.230222 31.9488 103.708444 78.085689 135.896178h3.549866l-21.2992 60.802844 74.5472-39.344355h3.549867c21.2992 10.729244 42.587022 14.301867 63.886222 14.301866h14.199467c-3.549867-14.301867-7.099733-28.603733-7.099734-42.9056 0-85.833956 81.635556-157.354667 184.570312-157.354666h7.099733C608.756622 337.442133 527.132444 273.066667 424.186311 273.066667z m370.676622 306.722133c0-78.654578-78.791111-143.018667-171.906844-143.018667-96.688356 0-171.895467 64.364089-171.895467 143.018667s78.791111 143.018667 171.895467 143.018667c17.908622 0 35.817244-3.584 53.725867-7.156623h3.572622l60.882489 32.176356-17.908623-53.623467c46.557867-28.603733 71.634489-67.925333 71.634489-114.414933z" fill="#5FC948" p-id="16721"></path><path d="M358.4 420.977778a28.444444 28.444444 0 1 1 0-56.888889 28.444444 28.444444 0 0 1 0 56.888889z m204.8 136.533333a28.444444 28.444444 0 1 1 0-56.888889 28.444444 28.444444 0 0 1 0 56.888889z m-68.266667-136.533333a28.444444 28.444444 0 1 1 0-56.888889 28.444444 28.444444 0 0 1 0 56.888889z m193.422223 136.533333a28.444444 28.444444 0 1 1 0-56.888889 28.444444 28.444444 0 0 1 0 56.888889z" fill="#5FC948" p-id="16722"></path></svg>